HIERARCHY
ROOT Hips
{
	OFFSET 0.000000 0.000000 0.000000
	CHANNELS 6 Xposition Yposition Zposition Xrotation Yrotation Zrotation
	JOINT LeftUpLeg_virtual
	{
		OFFSET 0.000000 0.000000 0.000000
		CHANNELS 3 Xrotation Yrotation Zrotation
		JOINT LeftUpLeg
		{
			OFFSET 13.026900 -6.336304 -1.092800
			CHANNELS 3 Xrotation Yrotation Zrotation
			JOINT LeftLeg
			{
				OFFSET 0.524474 -46.096886 9.782700
				CHANNELS 3 Xrotation Yrotation Zrotation
				JOINT LeftFoot
				{
					OFFSET -0.524474 -53.427422 -12.948200
					CHANNELS 3 Xrotation Yrotation Zrotation
					JOINT LeftToeBase
					{
						OFFSET 0.192200 -14.009700 16.364100
						CHANNELS 3 Xrotation Yrotation Zrotation
						JOINT LeftToe_End
						{
							OFFSET -1.784700 -0.561700 9.474800
							CHANNELS 3 Xrotation Yrotation Zrotation
							End Site
							{
								OFFSET 0 0 0
							}
						}
					}
				}
			}
		}
	}
	JOINT RightUpLeg_virtual
	{
		OFFSET 0.000000 0.000000 0.000000
		CHANNELS 3 Xrotation Yrotation Zrotation
		JOINT RightUpLeg
		{
			OFFSET -12.883000 -6.336304 -1.092800
			CHANNELS 3 Xrotation Yrotation Zrotation
			JOINT RightLeg
			{
				OFFSET -0.524587 -46.096825 9.782800
				CHANNELS 3 Xrotation Yrotation Zrotation
				JOINT RightFoot
				{
					OFFSET 0.524587 -53.427383 -12.948300
					CHANNELS 3 Xrotation Yrotation Zrotation
					JOINT RightToeBase
					{
						OFFSET -0.192200 -14.009700 16.364100
						CHANNELS 3 Xrotation Yrotation Zrotation
						JOINT RightToe_End
						{
							OFFSET 1.784700 -0.561700 9.474800
							CHANNELS 3 Xrotation Yrotation Zrotation
							End Site
							{
								OFFSET 0 0 0
							}
						}
					}
				}
			}
		}
	}
	JOINT Spine_virtual
	{
		OFFSET 0.000000 0.000000 0.000000
		CHANNELS 3 Xrotation Yrotation Zrotation
		JOINT Spine
		{
			OFFSET 0.072000 7.257294 -0.789700
			CHANNELS 3 Xrotation Yrotation Zrotation
			JOINT Spine1
			{
				OFFSET 0.000000 12.508769 -0.658067
				CHANNELS 3 Xrotation Yrotation Zrotation
				JOINT Spine1_split
				{
					OFFSET 0.000000 12.508769 -0.658067
					CHANNELS 3 Xrotation Yrotation Zrotation
					JOINT Spine2
					{
						OFFSET 0.000000 12.508769 -0.658067
						CHANNELS 3 Xrotation Yrotation Zrotation
						JOINT Neck_virtual
						{
							OFFSET 0.000000 0.000000 0.000000
							CHANNELS 3 Xrotation Yrotation Zrotation
							JOINT Neck
							{
								OFFSET 0.000000 14.033295 7.520400
								CHANNELS 3 Xrotation Yrotation Zrotation
								JOINT Head
								{
									OFFSET 0.000000 8.198502 5.703100
									CHANNELS 3 Xrotation Yrotation Zrotation
									JOINT HeadTop_End
									{
										OFFSET 0.000000 17.760803 13.332701
										CHANNELS 3 Xrotation Yrotation Zrotation
										End Site
										{
											OFFSET 0 0 0
										}
									}
								}
							}
						}
						JOINT LeftShoulder_virtual
						{
							OFFSET 0.000000 0.000000 0.000000
							CHANNELS 3 Xrotation Yrotation Zrotation
							JOINT LeftShoulder
							{
								OFFSET 6.292450 5.785301 -0.669000
								CHANNELS 3 Xrotation Yrotation Zrotation
								JOINT LeftShoulder_split
								{
									OFFSET 6.292450 5.785301 -0.669000
									CHANNELS 3 Xrotation Yrotation Zrotation
									JOINT LeftArm
									{
										OFFSET 13.907140 -6.093903 1.965100
										CHANNELS 3 Xrotation Yrotation Zrotation
										JOINT LeftForeArm
										{
											OFFSET 34.140198 0.000000 0.000000
											CHANNELS 3 Xrotation Yrotation Zrotation
											JOINT LeftHand
											{
												OFFSET 40.960209 0.000000 0.000000
												CHANNELS 3 Xrotation Yrotation Zrotation
												End Site
												{
													OFFSET 0 0 0
												}
											}
										}
									}
								}
							}
						}
						JOINT RightShoulder_virtual
						{
							OFFSET 0.000000 0.000000 0.000000
							CHANNELS 3 Xrotation Yrotation Zrotation
							JOINT RightShoulder
							{
								OFFSET -6.292450 5.785301 -0.669000
								CHANNELS 3 Xrotation Yrotation Zrotation
								JOINT RightShoulder_split
								{
									OFFSET -6.292450 5.785301 -0.669000
									CHANNELS 3 Xrotation Yrotation Zrotation
									JOINT RightArm
									{
										OFFSET -13.907140 -6.093903 1.965100
										CHANNELS 3 Xrotation Yrotation Zrotation
										JOINT RightForeArm
										{
											OFFSET -34.140198 0.000000 0.000000
											CHANNELS 3 Xrotation Yrotation Zrotation
											JOINT RightHand
											{
												OFFSET -40.960209 0.000000 0.000000
												CHANNELS 3 Xrotation Yrotation Zrotation
												End Site
												{
													OFFSET 0 0 0
												}
											}
										}
									}
								}
							}
						}
					}
				}
			}
		}
	}
}
MOTION
Frames: 8
Frame Time: 0.03333333
-0.678217 115.490036 -5.665287 0.000000 0.000000 0.000000 1.122143 3.275834 -0.516256 -13.873440 9.250319 5.831152 22.008712 -1.640852 1.854476 -9.528248 0.701851 -4.770103 -0.000057 -0.000003 -0.000001 0.000000 0.000000 0.000000 1.122143 3.275834 -0.516256 -10.109322 -6.128434 -6.988356 21.924639 -8.955847 7.585234 -11.362731 -16.679745 0.920556 -0.285963 0.000015 0.000001 0.000000 0.000000 0.000000 1.122143 3.275834 -0.516256 19.658029 -0.846402 -1.272906 1.207867 -0.113791 0.463327 0.000000 0.000000 0.000000 0.000000 0.000000 0.000000 1.207861 -0.094919 0.464716 17.515134 1.714767 1.340048 10.787760 2.058486 2.176075 0.000000 0.000000 0.000000 1.207861 -0.094919 0.464716 12.155474 -37.694868 -0.146237 0.000000 0.000000 0.000000 9.643778 18.951524 -51.717697 -0.000004 -34.841738 -0.000006 0.000000 0.000000 0.000000 1.207861 -0.094919 0.464716 0.535938 -2.061219 6.265376 0.000000 0.000000 0.000000 2.514662 20.851060 34.435912 -0.000001 9.263324 0.000003 0.000000 0.000000 0.000000 
-0.629713 115.600090 -5.419937 0.000000 0.000000 0.000000 1.019562 3.200340 -0.542216 -13.446744 9.387741 5.871258 21.705755 -1.701438 1.795880 -9.560877 0.699931 -4.736790 -0.000067 0.000003 -0.000001 0.000000 0.000000 0.000000 1.019562 3.200340 -0.542216 -9.668777 -6.034804 -6.860867 21.553432 -9.008689 7.472955 -11.302035 -16.741091 1.001861 -0.343502 0.000000 0.000000 0.000000 0.000000 0.000000 1.019562 3.200340 -0.542216 19.039157 -0.893727 -1.202476 1.223066 -0.119062 0.413203 0.000000 0.000000 0.000000 0.000000 0.000000 0.000000 1.222982 -0.102590 0.414475 17.491915 0.957045 1.398485 10.813742 -0.678496 3.594866 0.000000 0.000000 0.000000 1.222982 -0.102590 0.414475 11.672661 -37.520596 -0.316565 0.000000 0.000000 0.000000 11.271316 19.967061 -51.862931 -0.000004 -34.690794 -0.000010 0.000000 0.000000 0.000000 1.222982 -0.102590 0.414475 0.491470 -2.548974 6.180815 0.000000 0.000000 0.000000 3.745284 20.212618 34.029461 0.000002 9.536108 0.000018 0.000000 0.000000 0.000000 
-0.596276 115.672295 -5.226212 0.000000 0.000000 0.000000 0.923072 3.154223 -0.529362 -13.097792 9.478602 5.862609 21.484772 -1.730580 1.759479 -9.593980 0.699757 -4.719992 -0.000024 -0.000001 -0.000000 0.000000 0.000000 0.000000 0.923072 3.154223 -0.529362 -9.334651 -6.007793 -6.824518 21.317510 -9.032467 7.411721 -11.286360 -16.746738 1.060002 -0.370031 -0.000026 0.000001 0.000000 0.000000 0.000000 0.923072 3.154223 -0.529362 18.532684 -0.859918 -1.227459 1.234594 -0.113719 0.407003 0.000000 0.000000 0.000000 0.000000 0.000000 0.000000 1.234486 -0.097862 0.408096 17.433477 0.332751 1.495481 10.826398 -2.735812 4.630161 0.000000 0.000000 0.000000 1.234486 -0.097862 0.408096 11.198573 -37.286047 -0.490906 0.000000 0.000000 0.000000 12.400885 20.323682 -52.234439 0.000002 -34.431489 0.000004 0.000000 0.000000 0.000000 1.234486 -0.097862 0.408096 0.469250 -2.842995 6.172179 0.000000 0.000000 0.000000 4.088876 19.748922 34.584806 -0.000008 9.610798 -0.000011 0.000000 0.000000 0.000000 
-0.574583 115.699249 -5.081673 0.000000 0.000000 0.000000 0.828644 3.187945 -0.470244 -12.838865 9.507357 5.784091 21.366635 -1.758969 1.759135 -9.631801 0.700381 -4.714322 -0.000032 0.000001 0.000000 0.000000 0.000000 0.000000 0.828644 3.187945 -0.470244 -9.112010 -6.041384 -6.878771 21.243871 -9.020695 7.387235 -11.332621 -16.750925 1.104607 -0.353045 0.000002 -0.000002 0.000000 0.000000 0.000000 0.828644 3.187945 -0.470244 18.134144 -0.778367 -1.325983 1.238731 -0.101847 0.428709 0.000000 0.000000 0.000000 0.000000 0.000000 0.000000 1.238571 -0.085527 0.429644 17.373501 -0.124218 1.574507 10.863279 -4.143218 5.282622 0.000000 0.000000 0.000000 1.238571 -0.085527 0.429644 10.762252 -36.958447 -0.671954 0.000000 0.000000 0.000000 12.927823 20.131035 -52.757904 0.000007 -33.986400 -0.000006 0.000000 0.000000 0.000000 1.238571 -0.085527 0.429644 0.465292 -2.973857 6.249358 0.000000 0.000000 0.000000 3.518499 19.404429 36.092670 0.000003 9.454689 -0.000004 0.000000 0.000000 0.000000 
-0.559750 115.689072 -4.981678 0.000000 0.000000 0.000000 0.707607 3.339211 -0.398685 -12.655029 9.486130 5.668082 21.355915 -1.846161 1.800330 -9.675244 0.699768 -4.706537 -0.000035 -0.000002 -0.000000 0.000000 0.000000 0.000000 0.707607 3.339211 -0.398685 -8.934735 -6.099981 -6.961010 21.288745 -8.993319 7.377928 -11.427812 -16.827494 1.143179 -0.326638 0.000002 0.000000 0.000000 0.000000 0.000000 0.707607 3.339211 -0.398685 17.867403 -0.666862 -1.425259 1.236351 -0.086863 0.473128 0.000000 0.000000 0.000000 0.000000 0.000000 0.000000 1.236041 -0.069373 0.473913 17.326822 -0.415922 1.592086 10.924070 -4.990608 5.704514 0.000000 0.000000 0.000000 1.236041 -0.069373 0.473913 10.397792 -36.567504 -0.848124 0.000000 0.000000 0.000000 12.922670 19.518241 -53.359613 0.000004 -33.484388 0.000002 0.000000 0.000000 0.000000 1.236041 -0.069373 0.473913 0.478999 -2.941787 6.419239 0.000000 0.000000 0.000000 2.199127 19.178253 38.382716 -0.000004 9.062162 -0.000000 0.000000 0.000000 0.000000 
-0.552719 115.658829 -4.922985 0.000000 0.000000 0.000000 0.541917 3.595702 -0.336350 -12.512274 9.441376 5.549334 21.419540 -2.014879 1.870093 -9.713399 0.696469 -4.688470 -0.000071 0.000002 0.000002 0.000000 0.000000 0.000000 0.541917 3.595702 -0.336350 -8.745527 -6.159434 -7.026681 21.390170 -8.974409 7.372268 -11.545761 -16.993336 1.175449 -0.325043 0.000007 -0.000000 0.000000 0.000000 0.000000 0.541917 3.595702 -0.336350 17.735816 -0.531347 -1.468534 1.230921 -0.069935 0.529957 0.000000 0.000000 0.000000 0.000000 0.000000 0.000000 1.230343 -0.051078 0.530587 17.287282 -0.580043 1.570039 10.979923 -5.415788 6.001309 0.000000 0.000000 0.000000 1.230343 -0.051078 0.530587 10.150759 -36.197977 -0.993320 0.000000 0.000000 0.000000 12.532747 18.601593 -54.023067 0.000008 -33.136953 -0.000018 0.000000 0.000000 0.000000 1.230343 -0.051078 0.530587 0.516411 -2.702350 6.679546 0.000000 0.000000 0.000000 0.336648 19.071765 41.236950 0.000002 8.465364 0.000005 0.000000 0.000000 0.000000 
-0.560249 115.627274 -4.897060 0.000000 0.000000 0.000000 0.360423 3.898346 -0.262460 -12.383251 9.391554 5.421957 21.485087 -2.221931 1.944582 -9.724223 0.691146 -4.666153 -0.000071 -0.000000 0.000001 0.000000 0.000000 0.000000 0.360423 3.898346 -0.262460 -8.559770 -6.219043 -7.088681 21.508740 -8.969829 7.364725 -11.665808 -17.201480 1.197244 -0.340878 0.000012 0.000000 0.000000 0.000000 0.000000 0.360423 3.898346 -0.262460 17.666160 -0.351805 -1.480755 1.226265 -0.047549 0.593144 0.000000 0.000000 0.000000 0.000000 0.000000 0.000000 1.225315 -0.027345 0.593559 17.250085 -0.666878 1.568161 11.006926 -5.582833 6.162768 0.000000 0.000000 0.000000 1.225315 -0.027345 0.593559 10.006934 -35.873762 -1.108472 0.000000 0.000000 0.000000 11.868465 17.413687 -54.781389 -0.000001 -33.075188 -0.000023 0.000000 0.000000 0.000000 1.225315 -0.027345 0.593559 0.592308 -2.189748 7.025121 0.000000 0.000000 0.000000 -1.897281 19.017868 44.465638 0.000004 7.763452 0.000011 0.000000 0.000000 0.000000 
-0.584965 115.610611 -4.882053 0.000000 0.000000 0.000000 0.198379 4.178426 -0.158401 -12.240330 9.349960 5.276894 21.486450 -2.410289 2.005109 -9.698228 0.685706 -4.651148 -0.000016 -0.000001 0.000001 0.000000 0.000000 0.000000 0.198379 4.178426 -0.158401 -8.397759 -6.265373 -7.151093 21.607332 -8.970790 7.333860 -11.771909 -17.416042 1.211966 -0.336083 0.000007 -0.000000 0.000000 0.000000 0.000000 0.198379 4.178426 -0.158401 17.560094 -0.090608 -1.514720 1.221953 -0.014049 0.668430 0.000000 0.000000 0.000000 0.000000 0.000000 0.000000 1.220535 0.007726 0.668493 17.218384 -0.713416 1.617144 11.001539 -5.623590 6.168023 0.000000 0.000000 0.000000 1.220535 0.007726 0.668493 9.885576 -35.518650 -1.229870 0.000000 0.000000 0.000000 10.892655 15.886016 -55.637119 0.000005 -33.100589 0.000002 0.000000 0.000000 0.000000 1.220535 0.007726 0.668493 0.727507 -1.358071 7.440705 0.000000 0.000000 0.000000 -4.313107 18.935979 47.898139 0.000006 7.093891 0.000005 0.000000 0.000000 0.000000 
